{"title":"The.Kid.2010.LIMITED.1080p.BRRip.XviD.DTS-RSB","uid":6218759,"size":4294343546,"categoryP":"video","categoryS":"hd___movies","magnet":"?xt=urn:btih:4e6c08b3b6c8be18879a06059f9a79e4596f38bb&amp;dn=The.Kid.2010.LIMITED.1080p.BRRip.XviD.DTS-RSB&amp;tr=udp%3A%2F%2Ftracker.openbittorrent.com%3A80&amp;tr=udp%3A%2F%2Fopen.demonii.com%3A1337&amp;tr=udp%3A%2F%2Ftracker.coppersurfer.tk%3A6969&amp;tr=udp%3A%2F%2Fexodus.desync.com%3A6969","seeders":0,"leechers":1,"uploader":"RealSB","files":5,"time":1299258778,"description":"\nThe.Kid.2010.LIMITED.1080p.BRRip.XviD.DTS-RSB:\n\n\nPlot:\n\nKevin Lewis never had a chance. Growing up on a poverty-stricken London council estate, beaten and starved by his parents, bullied at school and abandoned by social services, his life was never his own. Even after he was put into care, he found himself out on the streets caught up in a criminal underworld that knew him as 'The Kid'. Yet Kevin survived to make a better life for himself. This international bestseller published in 2003 is his heartbreaking and inspiring story.\n\n\nCast:\n\nNatascha McElhone\t... \tGloria\nIoan Gruffudd\t... \tColin Smith\nRupert Friend\t... \tKevin Lewis\nJodie Whittaker\t... \tJackie\nBernard Hill\t... \tUncle David\nDavid O'Hara\t... \tTerry\nKate Ashfield\t... \tMadeline\nJames Fox\t... \tAlan\nAugustus Prew\t... \tTeen Kevin\nRalph Brown\t... \tGordon Peters\nOliver Milburn\t... \tPenfold\nAlfie Allen\t... \tDominic\nTom Burke\t... \tMr. Hayes\nShirley Anne Field\t... \tMargaret\nNiamh Cusack\t... \t1980 School Nurse\nLucinda Rhodes-Flaherty\t... \tMandy\nJamie Anderson\t... \tTeen Wayne\nAlison Carroll\t... \tClare\nRichard Graham\t... \tFruit + Veg Trader\nCon O'Neill\t... \tDennis\n\n\nSOURCE: The.Kid.2010.LIMITED.1080p.BluRay.x264-NOHD\n\nAUDIO LANGUAGE: English\n\n\nFormat                           : AVI\nFormat/Info                      : Audio Video Interleave\nFormat profile                   : OpenDML\nFile size                        : 3.96 GiB\nDuration                         : 1h 51mn\nOverall bit rate                 : 5 095 Kbps\nWriting application              : VirtualDubMod 1.5.10.3 | www.virtualdub-fr.org || (build 2550/release)\nWriting library                  : VirtualDubMod build 2550/release\n\nVideo\nID                               : 0\nFormat                           : MPEG-4 Visual\nFormat profile                   : Advanced Simple@L5\nFormat settings, BVOP            : 3\nFormat settings, QPel            : No\nFormat settings, GMC             : No warppoints\nFormat settings, Matrix          : Default (MPEG)\nCodec ID                         : XVID\nCodec ID/Hint                    : XviD\nDuration                         : 1h 51mn\nBit rate                         : 3 577 Kbps\nWidth                            : 1 920 pixels\nHeight                           : 1 080 pixels\nDisplay aspect ratio             : 16:9\nFrame rate                       : 24.000 fps\nColor space                      : YUV\nChroma subsampling               : 4:2:0\nBit depth                        : 8 bits\nScan type                        : Progressive\nCompression mode                 : Lossy\nBits/(Pixel*Frame)               : 0.072\nStream size                      : 2.78 GiB (70%)\nWriting library                  : XviD 1.2.1 (UTC 2008-12-04)\n\nAudio\nID                               : 1\nFormat                           : DTS\nFormat/Info                      : Digital Theater Systems\nCodec ID                         : 2001\nCodec ID/Info                    : Digital Theater Systems\nDuration                         : 1h 51mn\nBit rate mode                    : Constant\nBit rate                         : 1 510 Kbps\nChannel(s)                       : 6 channels\nChannel positions                : Front: L C R, Side: L R, LFE\nSampling rate                    : 48.0 KHz\nBit depth                        : 24 bits\nCompression mode                 : Lossy\nStream size                      : 1.17 GiB (30%)\nAlignment                        : Split accross interleaves\nInterleave, duration             : 42 ms (1.00 video frame)\nInterleave, preload duration     : 500 ms\n\n\n          EnJoY iT ! :)\n\n\n","torrent":{"xt":"urn:btih:4e6c08b3b6c8be18879a06059f9a79e4596f38bb","amp;dn":"The.Kid.2010.LIMITED.1080p.BRRip.XviD.DTS-RSB","amp;tr":["udp%3A%2F%2Ftracker.openbittorrent.com%3A80","udp%3A%2F%2Fopen.demonii.com%3A1337","udp%3A%2F%2Ftracker.coppersurfer.tk%3A6969","udp%3A%2F%2Fexodus.desync.com%3A6969"],"infoHash":"4e6c08b3b6c8be18879a06059f9a79e4596f38bb","infoHashBuffer":{"type":"Buffer","data":[78,108,8,179,182,200,190,24,135,154,6,5,159,154,121,228,89,111,56,187]},"announce":[],"urlList":[]}}